<svg xmlns="http://www.w3.org/2000/svg" width="16" height="16" viewBox="0 0 256 256">
						<path d="M-0 127.828L0 -0L256 0L256 256L-0 256L0 128.196L-0 127.828ZM0 127.828C1.4738 125.995 2.61121 123.76 3.85469 121.753L11.0404 110.25L38.6105 66.2211L44.309 57.0522C46.4113 53.6093 48.3654 50.2987 51.3917 47.5794C54.7388 44.5719 59.3104 43.1886 63.6962 42.7253C66.952 42.3813 70.3776 42.5715 73.653 42.5825L89.4573 42.5895L143.853 42.5826L199.104 42.5857L215.779 42.59C219.113 42.5912 222.568 42.4143 225.883 42.771C230.184 43.2336 234.103 44.7593 237.461 47.5047C241.636 50.919 244.562 55.8855 245.099 61.2959C245.411 64.4435 245.274 67.7015 245.276 70.8659L245.279 86.2191L245.286 135.238L245.281 175.195L245.276 187.153C245.274 189.803 245.386 192.518 245.052 195.149C244.576 198.913 242.823 202.674 240.411 205.585C236.483 210.327 231.078 212.828 225.016 213.359C221.644 213.654 218.125 213.476 214.739 213.478L196.01 213.474L137.717 213.48L87.8368 213.476L72.8699 213.472C70.0023 213.471 67.0133 213.643 64.1644 213.337C59.1788 212.8 55.047 211.438 51.1612 208.154C47.9022 205.401 45.7664 201.367 43.5489 197.79L36.8738 187.093L12.1882 147.589L3.94903 134.429C2.64566 132.366 1.43325 130.165 0 128.196L-0 256L256 256L256 0L0 -0L-0 127.828ZM93.2157 75.0798C90.2153 76.1205 87.7725 77.8231 86.3748 80.7841C85.1856 83.3035 85.04 86.4112 86.023 89.0189C86.9967 91.6023 88.9011 93.3004 90.8135 95.1996L96.697 101.053L117.718 122.077L121.784 126.151C122.069 126.438 122.843 127.053 122.996 127.375C123.081 127.551 123.091 127.937 123.125 128.143C122.652 129.076 121.759 129.812 121.025 130.549L116.946 134.633L96.6537 154.899L90.8131 160.739C89.4811 162.074 88.0193 163.399 87.0088 165C85.5192 167.36 85.0313 170.267 85.6178 172.996C86.1803 175.614 87.8923 178.046 90.1385 179.497C92.5948 181.083 95.5984 181.642 98.4574 180.986C100.084 180.612 101.614 179.737 102.89 178.679C105.366 176.626 107.587 174.096 109.866 171.822L122.858 158.835L133.455 148.232C135.11 146.579 136.995 144.959 138.507 143.192C142.208 146.127 145.478 149.857 148.818 153.202L166.897 171.284C169.613 173.997 172.509 177.627 175.74 179.686C177.645 180.899 180.149 181.443 182.384 181.185L184.233 180.897C187.436 179.571 189.766 177.878 191.166 174.599C192.228 172.108 192.11 168.953 191.074 166.471C190.119 164.183 188.21 162.49 186.494 160.774L180.521 154.811L159.336 133.615L155.115 129.396C154.738 129.02 153.99 128.461 153.874 127.942L180.187 101.515L186.032 95.6769C187.328 94.3841 188.755 93.0964 189.804 91.5924C191.181 89.6169 192.027 87.4069 191.918 84.9631C191.783 81.9353 190.418 79.2088 188.168 77.2144C185.793 75.1102 182.729 74.756 179.694 74.9813C178.017 75.1059 176.544 75.6783 175.194 76.6756C173.389 78.0094 171.837 79.7201 170.251 81.3021L162.989 88.558L138.618 112.904L113.822 88.1075L106.802 81.0824C105.27 79.5427 103.749 77.8268 101.961 76.5824C100.305 75.4292 98.3328 74.9337 96.3385 74.9254L93.2157 75.0798Z" />
					</svg>